# xmcd
#
# Track frame offsets:
#	150
#	20468
#	38658
#	58240
#	74967
#	93474
#	111901
#	128963
#	145356
#	163238
#
# Disc length: 2411
#
# Revision: 0
# Processed by: cddbd v1.5.1PL2 Copyright (c) Steve Scherf et al.
# Submitted via: Broken Cross Disk Manager 3.81.2155
#
DISCID=9b09690a
DTITLE=Lazy Lester - Blues Stop Knockin'
DYEAR=1900
DGENRE=
TTITLE0=Blues Stop Knockin'
TTITLE1=I'm Your Breadmaker, Baby
TTITLE2=Go Ahead
TTITLE3=Ya Ya
TTITLE4=I Told My Little Woman
TTITLE5=I Need Money
TTITLE6=If You Think I've Lost You
TTITLE7=You're Gonna Ruin Me, Baby
TTITLE8=I Made Up My Mind
TTITLE9=Hello Mary Lee
EXTD=
EXTT0=
EXTT1=
EXTT2=
EXTT3=
EXTT4=
EXTT5=
EXTT6=
EXTT7=
EXTT8=
EXTT9=
PLAYORDER=
